<mxfile host="app.diagrams.net" modified="2024-01-18T21:38:52.440Z" agent="Mozilla/5.0 (X11; Linux x86_64; rv:121.0) Gecko/20100101 Firefox/121.0" etag="vTKe-QjmKxfliLqZZEUM" version="22.1.21" type="github">
  <diagram id="C5RBs43oDa-KdzZeNtuy" name="Page-1">
    <mxGraphModel dx="1434" dy="786" grid="1" gridSize="10" guides="1" tooltips="1" connect="1" arrows="1" fold="1" page="1" pageScale="1" pageWidth="827" pageHeight="1169" math="0" shadow="0">
      <root>
        <mxCell id="WIyWlLk6GJQsqaUBKTNV-0" />
        <mxCell id="WIyWlLk6GJQsqaUBKTNV-1" parent="WIyWlLk6GJQsqaUBKTNV-0" />
        <mxCell id="WIyWlLk6GJQsqaUBKTNV-2" value="" style="rounded=0;html=1;jettySize=auto;orthogonalLoop=1;fontSize=11;endArrow=block;endFill=0;endSize=8;strokeWidth=1;shadow=0;labelBackgroundColor=none;edgeStyle=orthogonalEdgeStyle;" parent="WIyWlLk6GJQsqaUBKTNV-1" source="WIyWlLk6GJQsqaUBKTNV-3" target="WIyWlLk6GJQsqaUBKTNV-6" edge="1">
          <mxGeometry relative="1" as="geometry" />
        </mxCell>
        <mxCell id="WIyWlLk6GJQsqaUBKTNV-3" value="Main" style="rounded=1;whiteSpace=wrap;html=1;fontSize=12;glass=0;strokeWidth=1;shadow=0;" parent="WIyWlLk6GJQsqaUBKTNV-1" vertex="1">
          <mxGeometry x="354" y="70" width="120" height="40" as="geometry" />
        </mxCell>
        <mxCell id="WIyWlLk6GJQsqaUBKTNV-4" value="Yes" style="rounded=0;html=1;jettySize=auto;orthogonalLoop=1;fontSize=11;endArrow=block;endFill=0;endSize=8;strokeWidth=1;shadow=0;labelBackgroundColor=none;edgeStyle=orthogonalEdgeStyle;fillColor=#d5e8d4;strokeColor=#82b366;" parent="WIyWlLk6GJQsqaUBKTNV-1" source="WIyWlLk6GJQsqaUBKTNV-6" target="WIyWlLk6GJQsqaUBKTNV-10" edge="1">
          <mxGeometry y="20" relative="1" as="geometry">
            <mxPoint as="offset" />
          </mxGeometry>
        </mxCell>
        <mxCell id="WIyWlLk6GJQsqaUBKTNV-5" value="No" style="edgeStyle=orthogonalEdgeStyle;rounded=0;html=1;jettySize=auto;orthogonalLoop=1;fontSize=11;endArrow=block;endFill=0;endSize=8;strokeWidth=1;shadow=0;labelBackgroundColor=none;fillColor=#f8cecc;strokeColor=#b85450;" parent="WIyWlLk6GJQsqaUBKTNV-1" source="WIyWlLk6GJQsqaUBKTNV-6" target="WIyWlLk6GJQsqaUBKTNV-7" edge="1">
          <mxGeometry y="10" relative="1" as="geometry">
            <mxPoint as="offset" />
          </mxGeometry>
        </mxCell>
        <mxCell id="WIyWlLk6GJQsqaUBKTNV-6" value="Argc == 1" style="rhombus;whiteSpace=wrap;html=1;shadow=0;fontFamily=Helvetica;fontSize=12;align=center;strokeWidth=1;spacing=6;spacingTop=-4;" parent="WIyWlLk6GJQsqaUBKTNV-1" vertex="1">
          <mxGeometry x="364" y="160" width="100" height="80" as="geometry" />
        </mxCell>
        <mxCell id="WIyWlLk6GJQsqaUBKTNV-7" value="Error_Handler (Wrong Chars)" style="rounded=1;whiteSpace=wrap;html=1;fontSize=12;glass=0;strokeWidth=1;shadow=0;" parent="WIyWlLk6GJQsqaUBKTNV-1" vertex="1">
          <mxGeometry x="560" y="180" width="170" height="40" as="geometry" />
        </mxCell>
        <mxCell id="VhV7s66vXhJWgNVcdYe1-1" value="" style="edgeStyle=orthogonalEdgeStyle;rounded=0;orthogonalLoop=1;jettySize=auto;html=1;" edge="1" parent="WIyWlLk6GJQsqaUBKTNV-1" source="WIyWlLk6GJQsqaUBKTNV-10" target="VhV7s66vXhJWgNVcdYe1-0">
          <mxGeometry relative="1" as="geometry" />
        </mxCell>
        <mxCell id="VhV7s66vXhJWgNVcdYe1-7" value="Multiple Commands&lt;br&gt;(Accepted)" style="edgeLabel;html=1;align=center;verticalAlign=middle;resizable=0;points=[];" vertex="1" connectable="0" parent="VhV7s66vXhJWgNVcdYe1-1">
          <mxGeometry x="-0.2679" relative="1" as="geometry">
            <mxPoint as="offset" />
          </mxGeometry>
        </mxCell>
        <mxCell id="VhV7s66vXhJWgNVcdYe1-3" value="" style="edgeStyle=orthogonalEdgeStyle;rounded=0;orthogonalLoop=1;jettySize=auto;html=1;" edge="1" parent="WIyWlLk6GJQsqaUBKTNV-1" source="WIyWlLk6GJQsqaUBKTNV-10" target="VhV7s66vXhJWgNVcdYe1-2">
          <mxGeometry relative="1" as="geometry" />
        </mxCell>
        <mxCell id="VhV7s66vXhJWgNVcdYe1-6" value="Single Command" style="edgeLabel;html=1;align=center;verticalAlign=middle;resizable=0;points=[];" vertex="1" connectable="0" parent="VhV7s66vXhJWgNVcdYe1-3">
          <mxGeometry x="0.1066" y="1" relative="1" as="geometry">
            <mxPoint x="-1" y="44" as="offset" />
          </mxGeometry>
        </mxCell>
        <mxCell id="VhV7s66vXhJWgNVcdYe1-5" value="" style="edgeStyle=orthogonalEdgeStyle;rounded=0;orthogonalLoop=1;jettySize=auto;html=1;" edge="1" parent="WIyWlLk6GJQsqaUBKTNV-1" source="WIyWlLk6GJQsqaUBKTNV-10" target="VhV7s66vXhJWgNVcdYe1-13">
          <mxGeometry relative="1" as="geometry">
            <mxPoint x="620" y="630" as="targetPoint" />
          </mxGeometry>
        </mxCell>
        <mxCell id="VhV7s66vXhJWgNVcdYe1-9" value="Unsupported Chars" style="edgeLabel;html=1;align=center;verticalAlign=middle;resizable=0;points=[];" vertex="1" connectable="0" parent="VhV7s66vXhJWgNVcdYe1-5">
          <mxGeometry x="0.2969" relative="1" as="geometry">
            <mxPoint as="offset" />
          </mxGeometry>
        </mxCell>
        <mxCell id="WIyWlLk6GJQsqaUBKTNV-10" value="Parse Information" style="rhombus;whiteSpace=wrap;html=1;shadow=0;fontFamily=Helvetica;fontSize=12;align=center;strokeWidth=1;spacing=6;spacingTop=-4;" parent="WIyWlLk6GJQsqaUBKTNV-1" vertex="1">
          <mxGeometry x="364" y="310" width="100" height="80" as="geometry" />
        </mxCell>
        <mxCell id="VhV7s66vXhJWgNVcdYe1-0" value="Run Commands" style="whiteSpace=wrap;html=1;shadow=0;strokeWidth=1;spacing=6;spacingTop=-4;" vertex="1" parent="WIyWlLk6GJQsqaUBKTNV-1">
          <mxGeometry x="354" y="630" width="120" height="60" as="geometry" />
        </mxCell>
        <mxCell id="VhV7s66vXhJWgNVcdYe1-2" value="Run Command" style="whiteSpace=wrap;html=1;shadow=0;strokeWidth=1;spacing=6;spacingTop=-4;" vertex="1" parent="WIyWlLk6GJQsqaUBKTNV-1">
          <mxGeometry x="150" y="630" width="120" height="60" as="geometry" />
        </mxCell>
        <mxCell id="VhV7s66vXhJWgNVcdYe1-12" value="&lt;div align=&quot;left&quot;&gt;&lt;ul style=&quot;font-size: 11px;&quot;&gt;&lt;li style=&quot;font-size: 8px;&quot;&gt;&lt;font style=&quot;font-size: 8px;&quot;&gt;Unclosed Quotes&lt;/font&gt;&lt;/li&gt;&lt;li style=&quot;font-size: 8px;&quot;&gt;&lt;font style=&quot;font-size: 8px;&quot;&gt;; &lt;br&gt;&lt;/font&gt;&lt;/li&gt;&lt;/ul&gt;&lt;/div&gt;" style="whiteSpace=wrap;html=1;fillColor=#ffe6cc;strokeColor=#d79b00;sketch=1;curveFitting=1;jiggle=2;shadow=1;align=left;" vertex="1" parent="WIyWlLk6GJQsqaUBKTNV-1">
          <mxGeometry x="690" y="460" width="120" height="40" as="geometry" />
        </mxCell>
        <mxCell id="VhV7s66vXhJWgNVcdYe1-13" value="Error_Handler (CLOSE_ASPENS)" style="rounded=1;whiteSpace=wrap;html=1;fontSize=12;glass=0;strokeWidth=1;shadow=0;" vertex="1" parent="WIyWlLk6GJQsqaUBKTNV-1">
          <mxGeometry x="540" y="640" width="170" height="40" as="geometry" />
        </mxCell>
        <mxCell id="VhV7s66vXhJWgNVcdYe1-15" value="Error Handler" style="swimlane;whiteSpace=wrap;html=1;align=center;" vertex="1" parent="WIyWlLk6GJQsqaUBKTNV-1">
          <mxGeometry x="860" y="70" width="240" height="200" as="geometry">
            <mxRectangle x="1000" y="200" width="120" height="30" as="alternateBounds" />
          </mxGeometry>
        </mxCell>
        <mxCell id="VhV7s66vXhJWgNVcdYe1-18" value="&lt;div align=&quot;left&quot;&gt;Error_Handler(WRONG_CHARS)&lt;br&gt;Error_Handler(CLOSE_ASPENS)&lt;/div&gt;" style="align=left;verticalAlign=middle;labelPosition=center;verticalLabelPosition=middle;spacing=2;whiteSpace=wrap;html=1;fontSize=12;spacingRight=37;" vertex="1" parent="VhV7s66vXhJWgNVcdYe1-15">
          <mxGeometry x="15" y="30" width="210" height="160" as="geometry" />
        </mxCell>
        <mxCell id="VhV7s66vXhJWgNVcdYe1-23" value="&lt;br&gt;&lt;br&gt;1. `readline`: Reads a line from the user and manages input history.&lt;br&gt;&lt;br&gt;2. `rl_clear_history`: Clears the command history maintained by `readline`.&lt;br&gt;&lt;br&gt;3. `rl_on_new_line`: Not typically used directly by application code. Invoked when a new line is started.&lt;br&gt;&lt;br&gt;4. `rl_replace_line`: Replaces the current line of input with the provided text.&lt;br&gt;&lt;br&gt;5. `rl_redisplay`: Forces a redisplay of the current input line.&lt;br&gt;&lt;br&gt;6. `add_history`: Adds a line to the command history.&lt;br&gt;&lt;br&gt;7. `printf`: Prints formatted output to the console.&lt;br&gt;&lt;br&gt;8. `malloc`: Allocates a specified number of bytes of memory.&lt;br&gt;&lt;br&gt;9. `free`: Deallocates memory previously allocated by `malloc`.&lt;br&gt;&lt;br&gt;10. `write`: Writes data to a file descriptor.&lt;br&gt;&lt;br&gt;11. `access`: Checks if a file exists and if the process has permission to access it.&lt;br&gt;&lt;br&gt;12. `open`: Opens a file for reading or writing.&lt;br&gt;&lt;br&gt;13. `read`: Reads data from a file descriptor.&lt;br&gt;&lt;br&gt;14. `close`: Closes a file descriptor.&lt;br&gt;&lt;br&gt;15. `fork`: Creates a new process by duplicating the calling process.&lt;br&gt;&lt;br&gt;16. `wait`, `waitpid`, `wait3`, `wait4`: Waits for a child process to exit.&lt;br&gt;&lt;br&gt;17. `signal`, `sigaction`, `sigemptyset`, `sigaddset`: Handles signals in a program.&lt;br&gt;&lt;br&gt;18. `kill`: Sends a signal to a process.&lt;br&gt;&lt;br&gt;19. `exit`: Exits the current process.&lt;br&gt;&lt;br&gt;20. `getcwd`: Gets the current working directory.&lt;br&gt;&lt;br&gt;21. `chdir`: Changes the current working directory.&lt;br&gt;&lt;br&gt;22. `stat`, `lstat`, `fstat`: Retrieve information about a file.&lt;br&gt;&lt;br&gt;23. `unlink`: Deletes a file.&lt;br&gt;&lt;br&gt;24. `execve`: Executes a program.&lt;br&gt;&lt;br&gt;25. `dup`, `dup2`: Duplicates a file descriptor.&lt;br&gt;&lt;br&gt;26. `pipe`: Creates a pipe for interprocess communication.&lt;br&gt;&lt;br&gt;27. `opendir`, `readdir`, `closedir`: Manipulates directories.&lt;br&gt;&lt;br&gt;28. `strerror`, `perror`: Returns the error message string for the error code.&lt;br&gt;&lt;br&gt;29. `isatty`: Checks if a file descriptor refers to a terminal.&lt;br&gt;&lt;br&gt;30. `ttyname`, `ttyslot`: Returns the terminal name and slot number.&lt;br&gt;&lt;br&gt;31. `ioctl`: Performs I/O control operations.&lt;br&gt;&lt;br&gt;32. `getenv`: Retrieves the value of an environment variable.&lt;br&gt;&lt;br&gt;33. `tcsetattr`, `tcgetattr`: Sets and gets terminal attributes.&lt;br&gt;&lt;br&gt;34. `tgetent`, `tgetflag`, `tgetnum`, `tgetstr`, `tgoto`, `tputs`: Terminal-related functions for termcap/terminfo." style="whiteSpace=wrap;html=1;aspect=fixed;" vertex="1" parent="WIyWlLk6GJQsqaUBKTNV-1">
          <mxGeometry x="1300" y="40" width="1042" height="1042" as="geometry" />
        </mxCell>
      </root>
    </mxGraphModel>
  </diagram>
</mxfile>
